HIERARCHY
ROOT Hips
{
	OFFSET 0.000000 0.000000 0.000000
	CHANNELS 6 Xposition Yposition Zposition Zrotation Yrotation Xrotation 
	JOINT LeftUpLeg_virtual
	{
		OFFSET 0.000000 0.000000 0.000000
		CHANNELS 3 Zrotation Yrotation Xrotation
		JOINT LeftUpLeg
		{
			OFFSET 10.205400 -3.823500 0.155100
			CHANNELS 3 Zrotation Yrotation Xrotation
			JOINT LeftLeg
			{
				OFFSET 0.708757 -12.982077 0.567790
				CHANNELS 3 Zrotation Yrotation Xrotation
				JOINT LeftFoot
				{
					OFFSET -0.708756 -10.717838 -2.184338
					CHANNELS 3 Zrotation Yrotation Xrotation
					JOINT LeftToeBase
					{
						OFFSET 0.108149 -7.191104 7.560241
						CHANNELS 3 Zrotation Yrotation Xrotation
						End Site
						{
							OFFSET 0.000000 0.000000 0.000000
						}
					}
				}
			}
		}
	}
	JOINT RightUpLeg_virtual
	{
		OFFSET 0.000000 0.000000 0.000000
		CHANNELS 3 Zrotation Yrotation Xrotation
		JOINT RightUpLeg
		{
			OFFSET -10.205400 -3.823500 0.005500
			CHANNELS 3 Zrotation Yrotation Xrotation
			JOINT RightLeg
			{
				OFFSET -0.708756 -12.982134 0.610632
				CHANNELS 3 Zrotation Yrotation Xrotation
				JOINT RightFoot
				{
					OFFSET 0.708754 -10.717769 -1.945823
					CHANNELS 3 Zrotation Yrotation Xrotation
					JOINT RightToeBase
					{
						OFFSET -0.108140 -7.191069 7.372968
						CHANNELS 3 Zrotation Yrotation Xrotation
						End Site
						{
							OFFSET 0.000000 0.000000 0.000000
						}
					}
				}
			}
		}
	}
	JOINT Spine_virtual
	{
		OFFSET 0.000000 0.000000 0.000000
		CHANNELS 3 Zrotation Yrotation Xrotation
		JOINT Spine
		{
			OFFSET 0.000000 6.876099 0.125700
			CHANNELS 3 Zrotation Yrotation Xrotation
			JOINT Spine1
			{
				OFFSET 0.000000 8.022060 0.146608
				CHANNELS 3 Zrotation Yrotation Xrotation
				JOINT Spine2
				{
					OFFSET 0.000000 9.168068 0.167552
					CHANNELS 3 Zrotation Yrotation Xrotation
					JOINT Neck_virtual
					{
						OFFSET 0.000000 0.000000 0.000000
						CHANNELS 3 Zrotation Yrotation Xrotation
						JOINT Neck
						{
							OFFSET 0.000000 10.314075 0.188496
							CHANNELS 3 Zrotation Yrotation Xrotation
							JOINT Head
							{
								OFFSET 0.000000 7.643700 -2.377400
								CHANNELS 3 Zrotation Yrotation Xrotation
								End Site
								{
									OFFSET 0.000000 0.000000 0.000000
								}
							}
						}
					}
					JOINT LeftShoulder_virtual
					{
						OFFSET 0.000000 0.000000 0.000000
						CHANNELS 3 Zrotation Yrotation Xrotation
						JOINT LeftShoulder
						{
							OFFSET 4.392200 8.824978 0.174984
							CHANNELS 3 Zrotation Yrotation Xrotation
							JOINT LeftArm
							{
								OFFSET 8.771219 -2.981674 -0.026999
								CHANNELS 3 Zrotation Yrotation Xrotation
								JOINT LeftForeArm
								{
									OFFSET 8.512804 0.000000 -0.000000
									CHANNELS 3 Zrotation Yrotation Xrotation
									JOINT LeftHand
									{
										OFFSET 18.484802 0.000000 -0.000000
										CHANNELS 3 Zrotation Yrotation Xrotation
										End Site
										{
											OFFSET 0.000000 0.000000 0.000000
										}
									}
								}
							}
						}
					}
					JOINT RightShoulder_virtual
					{
						OFFSET 0.000000 0.000000 0.000000
						CHANNELS 3 Zrotation Yrotation Xrotation
						JOINT RightShoulder
						{
							OFFSET -4.392200 8.824993 0.141379
							CHANNELS 3 Zrotation Yrotation Xrotation
							JOINT RightArm
							{
								OFFSET -8.771282 -2.981682 -0.094208
								CHANNELS 3 Zrotation Yrotation Xrotation
								JOINT RightForeArm
								{
									OFFSET -8.494598 0.000000 0.000000
									CHANNELS 3 Zrotation Yrotation Xrotation
									JOINT RightHand
									{
										OFFSET -18.483803 0.000000 0.000001
										CHANNELS 3 Zrotation Yrotation Xrotation
										End Site
										{
											OFFSET 0.000000 0.000000 0.000000
										}
									}
								}
							}
						}
					}
				}
			}
		}
	}
}
MOTION
Frames: 11
Frame Time: 0.033333
0.861538 36.183704 23.561735 179.905776 4.847559 -179.759938 -2.556054 -4.309178 10.054266 -11.811257 5.189304 -17.232955 17.259634 4.614186 21.334139 0.231329 -5.384069 5.173403 0.000000 0.000000 0.000000 1.571079 -1.310446 7.986222 -0.733268 3.126505 -11.089419 -7.854257 0.945624 16.471541 7.498467 2.798011 5.305930 0.000000 0.000000 0.000000 1.567885 -0.008487 -1.577826 -5.578085 2.272666 -6.039202 0.530314 -2.919749 3.866105 0.016873 0.024342 0.029341 0.153251 -1.165583 8.491037 1.094291 1.735938 17.218581 0.000000 0.000000 0.000000 1.630863 -0.269398 5.089703 -10.373389 4.358726 -8.542298 -0.351900 17.562829 -42.953403 -0.600016 -47.283590 -0.469539 0.000000 0.000000 0.000000 -1.876350 0.532030 4.718518 20.126083 -8.379885 -16.945718 11.382822 -23.543577 -40.330358 -2.217437 38.762946 2.872049 0.000000 0.000000 0.000000 
0.873652 36.182793 23.550587 179.819743 4.929393 -179.654261 -2.471133 -4.390520 10.284379 -11.659672 4.677758 -17.007130 17.333451 3.872019 21.374093 -0.073517 -5.625572 5.174523 0.000000 0.000000 0.000000 1.555688 -1.163162 8.030411 -0.794079 3.057489 -11.090813 -8.017942 0.791814 16.557560 7.321712 2.651229 5.476211 0.000000 0.000000 0.000000 1.514636 0.017012 -1.610604 -5.557991 2.220171 -6.060135 0.533810 -2.898263 3.898674 0.040964 0.025931 0.055915 0.153381 -1.149724 8.642138 1.114375 1.730581 17.339152 0.000000 0.000000 0.000000 1.640768 -0.249250 5.144792 -10.407132 4.701585 -8.552722 -0.577151 18.493043 -43.353386 -0.593586 -47.181635 -0.467318 0.000000 0.000000 0.000000 -1.891840 0.544012 4.796175 20.140408 -8.656932 -17.020234 11.814906 -24.488216 -40.847110 -2.278551 38.881183 2.868412 0.000000 0.000000 0.000000 
0.873425 36.186996 23.533489 179.824742 4.983437 -179.643510 -2.474687 -4.347020 10.349917 -11.682592 4.654472 -17.045468 17.344318 3.837931 21.341971 -0.087289 -5.584004 5.203653 0.000000 0.000000 0.000000 1.557584 -1.127696 8.127301 -0.816859 2.977178 -11.127300 -8.017157 0.726332 16.447500 7.358427 2.638539 5.510938 0.000000 0.000000 0.000000 1.509964 0.078251 -1.525127 -5.521879 2.160390 -6.002975 0.535199 -2.901305 4.001255 0.014744 0.015398 0.062703 0.162844 -1.158462 8.754833 1.248083 1.670020 17.492125 0.000000 0.000000 0.000000 1.668180 -0.221191 5.199586 -10.467105 5.247407 -8.723915 -1.257459 19.726288 -44.491115 -0.528801 -47.143902 -0.480121 0.000000 0.000000 0.000000 -1.870989 0.522253 4.866987 20.258078 -9.110612 -17.185961 12.444134 -25.854209 -41.626403 -2.447437 39.219824 2.838550 0.000000 0.000000 0.000000 
0.860012 36.195862 23.506824 179.758257 5.062029 -179.596191 -2.556627 -4.351617 10.381929 -11.746166 4.622643 -17.068989 17.424081 3.870496 21.300283 -0.112074 -5.524455 5.256503 0.000000 0.000000 0.000000 1.498114 -1.113517 8.193867 -0.876389 2.981121 -11.157050 -8.025839 0.777790 16.216954 7.436255 2.674420 5.623224 0.000000 0.000000 0.000000 1.456108 0.136017 -1.496172 -5.500106 2.097518 -5.951866 0.505629 -2.898359 4.101675 0.030388 0.006046 0.076044 0.150107 -1.360839 8.783953 1.479173 1.589096 17.643470 0.000000 0.000000 0.000000 1.653301 -0.243785 5.225231 -10.554308 5.837674 -8.772508 -2.070940 20.892253 -46.013403 -0.474311 -47.014084 -0.449533 0.000000 0.000000 0.000000 -1.906971 0.514559 4.902362 20.323779 -9.673406 -17.379935 13.141863 -27.353550 -42.461476 -2.627154 39.720272 2.863448 0.000000 0.000000 0.000000 
0.833277 36.208599 23.482800 179.794307 5.341836 -179.602597 -2.550466 -4.226395 10.416502 -11.819359 4.634309 -17.009184 17.443227 3.899894 21.226526 -0.088021 -5.408406 5.357362 0.000000 0.000000 0.000000 1.551791 -1.016686 8.201188 -0.944836 2.973274 -11.103611 -8.059524 0.862495 16.023328 7.531774 2.700734 5.748423 0.000000 0.000000 0.000000 1.475723 0.229876 -1.399036 -5.448375 2.150644 -5.902144 0.485245 -2.867654 4.168125 0.001533 0.044498 0.071956 0.240374 -1.250989 8.849029 1.788260 1.552009 17.969316 0.000000 0.000000 0.000000 1.653412 -0.310011 5.316745 -10.665517 6.322817 -9.081116 -2.811145 21.675030 -47.654448 -0.396757 -46.640961 -0.429258 0.000000 0.000000 0.000000 -1.916502 0.511028 4.898252 20.450298 -10.120559 -17.523837 13.577129 -28.567990 -43.125944 -2.774530 39.956033 2.976295 0.000000 0.000000 0.000000 
0.793328 36.219894 23.464058 179.900790 5.627108 -179.576424 -2.402745 -4.170752 10.400619 -11.905333 4.724742 -16.922914 17.438875 3.949548 21.200791 -0.046097 -5.263071 5.394586 0.000000 0.000000 0.000000 1.693030 -0.983344 8.125035 -1.029992 2.966169 -11.011097 -8.079777 1.262123 15.790431 7.601589 2.692374 5.894925 0.000000 0.000000 0.000000 1.612728 0.245322 -1.355436 -5.377278 2.270157 -5.908534 0.442870 -2.852339 4.236100 0.035469 0.063938 0.084005 0.102737 -1.163752 8.875977 2.053981 1.432284 18.277735 0.000000 0.000000 0.000000 1.521793 -0.295424 5.391203 -10.714216 6.691678 -9.373379 -3.463392 21.927528 -49.025261 -0.339557 -46.178923 -0.357986 0.000000 0.000000 0.000000 -2.068336 0.479313 5.013187 20.559462 -10.400661 -17.818782 13.811066 -29.220690 -43.505672 -2.916219 39.947710 3.092552 0.000000 0.000000 0.000000 
0.751498 36.224419 23.453739 179.844946 5.704714 -179.581465 -2.486943 -4.325299 10.339963 -12.031352 4.714763 -16.838679 17.507448 4.061196 21.169521 -0.040696 -5.141483 5.481847 0.000000 0.000000 0.000000 1.626808 -1.152217 8.049447 -1.126820 2.974516 -10.883673 -8.117803 1.513682 15.548171 7.612358 2.685974 5.934189 0.000000 0.000000 0.000000 1.630547 0.114103 -1.372603 -5.424927 2.369862 -5.960793 0.342766 -2.921015 4.310966 0.008097 0.011853 0.071568 0.071204 -1.162378 8.950877 2.288311 1.386488 18.716615 0.000000 0.000000 0.000000 1.482877 -0.284795 5.380318 -10.790936 6.896219 -9.332718 -3.945626 21.858019 -49.885595 -0.271334 -45.626661 -0.300887 0.000000 0.000000 0.000000 -2.101284 0.506733 5.107469 20.583187 -10.484101 -18.020646 13.793676 -29.524606 -43.722309 -2.927795 39.760976 3.303461 0.000000 0.000000 0.000000 
0.707507 36.224243 23.452841 179.938834 5.979513 -179.520403 -2.368492 -4.324535 10.277719 -12.142916 4.846322 -16.784550 17.469923 4.155451 21.178823 -0.003884 -5.007509 5.488925 0.000000 0.000000 0.000000 1.735225 -1.171983 7.931321 -1.205179 3.043395 -10.787696 -8.162598 1.862942 15.355387 7.636974 2.683541 5.984302 0.000000 0.000000 0.000000 1.748845 0.077867 -1.486273 -5.412150 2.596486 -6.089131 0.310430 -2.916129 4.485622 0.021733 0.047273 0.036743 0.002657 -1.174472 8.950279 2.452238 1.374089 19.094583 0.000000 0.000000 0.000000 1.404368 -0.309408 5.401336 -10.919876 6.922986 -9.569512 -4.169824 21.313472 -50.168160 -0.252171 -45.142318 -0.176579 0.000000 0.000000 0.000000 -2.174809 0.471056 5.086160 20.587956 -10.511883 -18.120547 13.636523 -29.398951 -43.753222 -2.872525 39.530027 3.453476 0.000000 0.000000 0.000000 
0.669132 36.213451 23.454340 179.817803 6.095207 -179.601641 -2.493167 -4.365802 10.261124 -12.266606 4.845293 -16.722528 17.549114 4.318516 21.265850 -0.033616 -4.937475 5.523073 0.000000 0.000000 0.000000 1.628663 -1.225944 7.897943 -1.262178 3.062898 -10.678472 -8.149470 2.067535 15.304596 7.672220 2.733919 5.922457 0.000000 0.000000 0.000000 1.744367 0.043379 -1.435989 -5.502589 2.794420 -6.252882 0.269554 -2.973668 4.440845 0.019233 0.041563 0.049483 0.004523 -1.247468 9.143258 2.540811 1.415632 19.659293 0.000000 0.000000 0.000000 1.405456 -0.371380 5.521590 -10.946824 6.821545 -9.733347 -4.482151 20.688271 -50.067544 -0.248486 -44.954970 -0.064760 0.000000 0.000000 0.000000 -2.154321 0.413850 5.224376 20.593451 -10.413823 -18.249651 13.402391 -28.908946 -43.615102 -2.698430 39.312148 3.657162 0.000000 0.000000 0.000000 
0.639455 36.201118 23.456015 179.909519 6.157315 -179.552068 -2.380975 -4.367573 10.198319 -12.316151 4.935080 -16.725706 17.505261 4.414980 21.423966 -0.067011 -4.910163 5.400743 0.000000 0.000000 0.000000 1.718578 -1.197803 7.837918 -1.309929 3.107364 -10.665974 -8.203915 2.236262 15.258386 7.659539 2.742017 5.903187 0.000000 0.000000 0.000000 1.847397 0.016880 -1.536184 -5.533695 2.951408 -6.518367 0.279424 -3.066084 4.500801 0.021886 0.001234 0.042669 -0.034907 -1.308241 9.208521 2.490308 1.450540 20.062994 0.000000 0.000000 0.000000 1.384929 -0.382130 5.586271 -10.956166 6.672577 -9.711055 -4.641718 19.846219 -49.775198 -0.195457 -44.908589 -0.032005 0.000000 0.000000 0.000000 -2.152505 0.405297 5.365056 20.549188 -10.159761 -18.302761 13.320850 -28.138172 -43.649475 -2.471983 39.128385 3.784567 0.000000 0.000000 0.000000 
0.618191 36.184086 23.473408 179.825139 6.055444 -179.615957 -2.460240 -4.372463 10.130995 -12.344659 4.875270 -16.733342 17.547360 4.508177 21.564943 -0.119365 -4.904317 5.318241 0.000000 0.000000 0.000000 1.621791 -1.198580 7.822676 -1.306482 3.016342 -10.613352 -8.185363 2.182113 15.333592 7.699340 2.813954 5.777375 0.000000 0.000000 0.000000 1.804803 0.061505 -1.626909 -5.645769 3.122402 -6.770182 0.285380 -3.110679 4.634347 0.023664 0.023374 0.058058 0.013788 -1.407744 9.382014 2.423660 1.564575 20.629289 0.000000 0.000000 0.000000 1.447747 -0.510972 5.716035 -10.870290 6.308354 -9.854248 -4.861926 18.873730 -49.365978 -0.128504 -45.032062 -0.022052 0.000000 0.000000 0.000000 -2.072874 0.214940 5.442740 20.567803 -10.026341 -18.265188 13.280288 -27.195609 -43.654792 -2.187063 38.789266 3.899426 0.000000 0.000000 0.000000 
